<?xml version="1.0" encoding="iso-8859-1"?>
<!-- Generator: Adobe Illustrator 16.0.0, SVG Export Plug-In . SVG Version: 6.00 Build 0)  -->
<!DOCTYPE svg PUBLIC "-//W3C//DTD SVG 1.1//EN" "http://www.w3.org/Graphics/SVG/1.1/DTD/svg11.dtd">
<svg xmlns="http://www.w3.org/2000/svg" xmlns:xlink="http://www.w3.org/1999/xlink" version="1.1" id="Capa_1" x="0px" y="0px" width="512px" height="512px" viewBox="0 0 33.416 33.416" style="enable-background:new 0 0 33.416 33.416;" xml:space="preserve">
<g>
	<g>
		<polygon points="20.866,15.038 20.866,17.186 18.717,17.186 18.717,19.052 20.866,19.052 20.866,21.199 22.731,21.199     22.731,19.052 24.881,19.052 24.881,17.186 22.731,17.186 22.731,15.038   " fill="#FFFFFF"/>
		<path d="M11.614,8.485c-0.435,0.384-0.298,1.259,0.509,0.882c0.81-0.377,2.931-1.136,4.583-1.136c5.448,0,9.882,4.432,9.882,9.878    c0,5.445-4.434,8.861-9.882,8.861c-5.446,0-9.877-3.416-9.877-8.861c0-1.729,0.908-4.419,1.23-4.763    c0.322-0.348-0.493-1.226-0.818-0.612c-0.321,0.612-1.429,3.42-1.429,5.375c0,6.007,4.887,9.881,10.894,9.881    c6.011,0,10.898-3.874,10.898-9.881c0-6.008-4.89-10.896-10.898-10.896C14.868,7.215,12.047,8.105,11.614,8.485z" fill="#FFFFFF"/>
		<path d="M10.534,21.262c0.371,0.4,0.825,0.717,1.361,0.948c0.536,0.231,1.152,0.349,1.848,0.349c0.625,0,1.181-0.104,1.668-0.313    c0.488-0.208,0.898-0.481,1.23-0.821s0.584-0.723,0.756-1.146c0.172-0.422,0.258-0.852,0.258-1.283h-2.592    c-0.04,0.199-0.094,0.389-0.162,0.564c-0.067,0.176-0.156,0.327-0.264,0.455c-0.108,0.129-0.24,0.229-0.396,0.301    c-0.155,0.071-0.346,0.107-0.569,0.107c-0.313,0-0.572-0.068-0.78-0.204s-0.374-0.315-0.498-0.54    c-0.124-0.224-0.214-0.477-0.27-0.756c-0.056-0.279-0.085-0.564-0.085-0.854s0.029-0.57,0.085-0.852    c0.056-0.281,0.146-0.532,0.27-0.756c0.124-0.225,0.29-0.404,0.498-0.54c0.208-0.137,0.468-0.204,0.78-0.204    c0.271,0,0.493,0.052,0.666,0.155c0.172,0.104,0.31,0.225,0.414,0.36c0.104,0.137,0.176,0.274,0.216,0.414s0.067,0.25,0.084,0.33    h2.567c-0.111-1.08-0.489-1.914-1.134-2.502c-0.644-0.588-1.558-0.886-2.742-0.895c-0.663,0-1.262,0.108-1.793,0.324    c-0.532,0.216-0.989,0.521-1.369,0.912c-0.38,0.393-0.671,0.864-0.875,1.416c-0.204,0.552-0.307,1.164-0.307,1.835    c0,0.633,0.096,1.224,0.289,1.771C9.88,20.389,10.161,20.861,10.534,21.262z" fill="#FFFFFF"/>
		<path d="M24.622,0l-0.243,0.022L24.356,0H2.697v33.416h28.021V8.991V6.362V6.098L24.622,0z M29.219,31.916H4.197V1.5h19.15v5.97    h5.871V31.916z" fill="#FFFFFF"/>
	</g>
</g>
<g>
</g>
<g>
</g>
<g>
</g>
<g>
</g>
<g>
</g>
<g>
</g>
<g>
</g>
<g>
</g>
<g>
</g>
<g>
</g>
<g>
</g>
<g>
</g>
<g>
</g>
<g>
</g>
<g>
</g>
</svg>
