<?xml version="1.0" encoding="iso-8859-1"?>
<!-- Generator: Adobe Illustrator 16.0.0, SVG Export Plug-In . SVG Version: 6.00 Build 0)  -->
<!DOCTYPE svg PUBLIC "-//W3C//DTD SVG 1.1//EN" "http://www.w3.org/Graphics/SVG/1.1/DTD/svg11.dtd">
<svg xmlns="http://www.w3.org/2000/svg" xmlns:xlink="http://www.w3.org/1999/xlink" version="1.1" id="Capa_1" x="0px" y="0px" width="512px" height="512px" viewBox="0 0 178.96 178.961" style="enable-background:new 0 0 178.96 178.961;" xml:space="preserve">
<g>
	<g>
		<path d="M31.104,30.399c4.512-3.023,7.624-9.021,7.624-14.41c0-7.611-6.171-13.779-13.78-13.779    c-7.605,0-13.78,6.168-13.78,13.779c0,5.383,3.111,11.381,7.626,14.41C8.007,33.137,0,42.508,0,49.461    c0,8.199,49.888,8.199,49.888,0C49.882,42.514,41.89,33.143,31.104,30.399z M24.941,55.603l-6.99-6.976l5.882-14.23h-0.064    l-2.28-2.612c1.108,0.393,2.256,0.636,3.452,0.636c1.197,0,2.345-0.237,3.45-0.636l-2.284,2.612h-0.055l5.879,14.23L24.941,55.603    z" fill="#FFFFFF"/>
		<path d="M61.324,36.902v18.706H178.96V36.902H61.324z M174.174,52.853h-54.023V39.664h54.023V52.853z" fill="#FFFFFF"/>
		<path d="M31.104,90.965c4.512-3.021,7.624-9.018,7.624-14.407c0-7.611-6.171-13.78-13.78-13.78c-7.605,0-13.78,6.168-13.78,13.78    c0,5.383,3.111,11.38,7.626,14.407C8.007,93.705,0,103.083,0,110.03c0,8.202,49.888,8.202,49.888,0    C49.882,103.083,41.89,93.712,31.104,90.965z M24.941,116.175l-6.99-6.979l5.882-14.23h-0.064l-2.28-2.612    c1.108,0.39,2.256,0.634,3.452,0.634c1.197,0,2.345-0.232,3.45-0.634l-2.284,2.612h-0.055l5.879,14.23L24.941,116.175z" fill="#FFFFFF"/>
		<path d="M61.324,116.181H178.96V97.475H61.324V116.181z M174.174,113.422h-22.067v-13.188h22.067V113.422z" fill="#FFFFFF"/>
		<path d="M31.104,151.54c4.512-3.026,7.624-9.024,7.624-14.407c0-7.617-6.171-13.786-13.78-13.786    c-7.605,0-13.78,6.169-13.78,13.786c0,5.377,3.111,11.375,7.626,14.407C8.007,154.28,0,163.646,0,170.599    c0,8.203,49.888,8.203,49.888,0C49.882,163.657,41.89,154.28,31.104,151.54z M24.941,176.743l-6.99-6.979l5.882-14.23h-0.064    l-2.28-2.611c1.108,0.396,2.256,0.639,3.452,0.639c1.197,0,2.345-0.243,3.45-0.639l-2.284,2.611h-0.055l5.879,14.23    L24.941,176.743z" fill="#FFFFFF"/>
		<path d="M61.324,176.749H178.96v-18.706H61.324V176.749z M174.174,173.991H91.94v-13.184h82.234V173.991z" fill="#FFFFFF"/>
	</g>
</g>
<g>
</g>
<g>
</g>
<g>
</g>
<g>
</g>
<g>
</g>
<g>
</g>
<g>
</g>
<g>
</g>
<g>
</g>
<g>
</g>
<g>
</g>
<g>
</g>
<g>
</g>
<g>
</g>
<g>
</g>
</svg>
