<?xml version="1.0" encoding="iso-8859-1"?>
<!-- Generator: Adobe Illustrator 19.0.0, SVG Export Plug-In . SVG Version: 6.00 Build 0)  -->
<svg xmlns="http://www.w3.org/2000/svg" xmlns:xlink="http://www.w3.org/1999/xlink" version="1.1" id="Capa_1" x="0px" y="0px" viewBox="0 0 479.995 479.995" style="enable-background:new 0 0 479.995 479.995;" xml:space="preserve" width="512px" height="512px">
<g>
	<g>
		<g>
			<path d="M441.931,280.252c-1.1-0.29-2.252-0.326-3.368-0.104l-78.568,14.264v-38.4c0-4.418-3.582-8-8-8h-48     c-2.122,0-4.156,0.844-5.656,2.344l-29.656,29.656h-49.376l-29.656-29.656c-1.5-1.5-3.534-2.344-5.656-2.344h-48     c-4.418,0-8,3.582-8,8v38.056l-75.472-16.552c-2.984-0.875-6.026-1.535-9.104-1.976c-4.371-0.646-8.438,2.374-9.084,6.745     c-0.617,4.172,2.112,8.107,6.236,8.992l8,1.76c9.822,2.998,18.429,9.055,24.568,17.288c2.302,3.104,4.23,6.468,5.744,10.024     l-29.288-5.864c-2.343-0.99-4.799-1.689-7.312-2.08c-20.195-2.907-38.924,11.108-41.831,31.303     c-0.003,0.021-0.006,0.043-0.009,0.065c-3.421,24.159,13.354,46.531,37.504,50.016c2.507,0.356,5.036,0.535,7.568,0.536     c1.088,0,2.12-0.224,3.2-0.288v0.256l87-8l-37.6,40.264c-3.013,3.231-2.836,8.294,0.395,11.307     c1.488,1.388,3.45,2.157,5.485,2.149h24v24c0.001,4.418,3.583,7.999,8.002,7.998c2.121,0,4.154-0.843,5.654-2.342l77.656-77.656     h49.376l77.656,77.656c1.5,1.5,3.534,2.344,5.656,2.344c1.052,0.003,2.093-0.203,3.064-0.608     c2.989-1.239,4.937-4.157,4.936-7.392v-24h24c4.418,0.003,8.002-3.577,8.005-7.995c0.001-2.031-0.77-3.986-2.157-5.469     l-38.104-40.8l87.688,6.264c0.184,0,0.384,0,0.568,0c0.653,0.001,1.303-0.08,1.936-0.24c13.168-3.288,38.064-19.184,38.064-55.76     S455.099,283.54,441.931,280.252z M35.163,346.629C35.163,346.629,35.163,346.629,35.163,346.629     c0.274-1.903,1.902-3.317,3.824-3.321c0.182-0.002,0.364,0.011,0.544,0.04l2.104-14.784c7.471,1.955,12.289,9.202,11.2,16.848     c-0.813,5.748-6.132,9.749-11.88,8.936C37.224,353.816,34.63,350.36,35.163,346.629z M82.395,346.332     c-2.916,20.365-21.785,34.514-42.152,31.608h-0.032c-15.41-2.215-26.116-16.49-23.928-31.904     c1.185-8.262,7.153-15.038,15.2-17.256c-6.539,2.665-11.176,8.595-12.184,15.584c-1.769,12.479,6.9,24.034,19.376,25.824     c14.503,2.078,27.944-7.995,30.022-22.498c0.001-0.005,0.001-0.009,0.002-0.014c0.616-4.442,0.258-8.966-1.048-13.256     l15.128,3.024C82.917,340.412,82.789,343.387,82.395,346.332z M86.739,374.74c6.138-7.497,10.103-16.534,11.464-26.128     c2.397-16.706-1.864-33.685-11.864-47.28l41.656,9.08v33.6c0,4.418,3.582,8,8,8h31.72L152.139,368.7L86.739,374.74z      M207.995,380.7l-64,64v-12.688c0-4.418-3.582-8-8-8h-13.6l37.272-39.936l1.064-0.064l-0.088-0.936l47.352-50.76V380.7z      M207.995,308.7l-27.312,27.312h-36.688v-72h36.688l27.312,27.312V308.7z M263.995,312.012v64h-40v-80h40V312.012z      M279.995,291.324l27.312-27.312h36.688v72h-36.688L279.995,308.7V291.324z M365.595,424.012h-13.6c-4.418,0-8,3.582-8,8V444.7     l-64-64v-48.384l47.488,50.896l-0.056,0.8l0.864,0.064L365.595,424.012z M439.092,375.924l-103.377-7.376l-15.44-16.536h31.72     c4.418,0,8-3.582,8-8v-33.328l79.488-14.448c5.424,1.984,24.512,10.976,24.512,39.776     C463.995,365.53,443.998,374.243,439.092,375.924z" fill="#FFFFFF"/>
			<path d="M69.467,79.596L69.467,79.596l66.528,22.176v74.24c-0.001,1.016,0.192,2.024,0.568,2.968     c0.736,1.832,18.984,45.032,103.432,45.032v-16c-66,0-84.672-27.688-88-33.824v-67.08l85.472,28.488     c1.64,0.555,3.416,0.555,5.056,0l37.472-12.488v6.4c-8.99,3.199-15.217,11.438-15.84,20.96l-16,80l15.68,3.136l12.16-60.92     c1.273,0.742,2.612,1.363,4,1.856v57.472h16V174.54c1.388-0.493,2.727-1.114,4-1.856l12.16,60.928l15.68-3.136l-16-80     c-0.611-9.534-6.84-17.789-15.84-20.992v-11.712l32-10.664v74.504c-1.527,1.968-3.266,3.763-5.184,5.352l10.4,12.192     c4.029-3.188,7.417-7.11,9.984-11.56c0.538-1.117,0.812-2.344,0.8-3.584v-82.24l66.528-22.176     c4.197-1.38,6.482-5.901,5.102-10.098c-0.794-2.415-2.687-4.308-5.102-5.102l-168-56c-1.64-0.552-3.416-0.552-5.056,0l-168,56     c-4.197,1.38-6.482,5.901-5.102,10.098C65.158,76.909,67.052,78.803,69.467,79.596z M287.995,160.012c-4.418,0-8-3.582-8-8     s3.582-8,8-8s8,3.582,8,8S292.413,160.012,287.995,160.012z M239.995,24.444l142.704,47.568l-87.312,29.104     c-0.626-1.644-1.776-3.036-3.272-3.96l-29.432-17.664c0.837-2.406,1.28-4.932,1.312-7.48c0-13.255-10.745-24-24-24     s-24,10.745-24,24s10.745,24,24,24c4.54-0.013,8.982-1.326,12.8-3.784l24.728,14.84l-37.528,12.512L97.291,72.012L239.995,24.444     z M247.995,72.012c0,4.418-3.582,8-8,8s-8-3.582-8-8s3.582-8,8-8S247.995,67.594,247.995,72.012z" fill="#FFFFFF"/>
		</g>
	</g>
</g>
<g>
</g>
<g>
</g>
<g>
</g>
<g>
</g>
<g>
</g>
<g>
</g>
<g>
</g>
<g>
</g>
<g>
</g>
<g>
</g>
<g>
</g>
<g>
</g>
<g>
</g>
<g>
</g>
<g>
</g>
</svg>
