<?xml version="1.0" encoding="iso-8859-1"?>
<!-- Generator: Adobe Illustrator 18.0.0, SVG Export Plug-In . SVG Version: 6.00 Build 0)  -->
<!DOCTYPE svg PUBLIC "-//W3C//DTD SVG 1.1//EN" "http://www.w3.org/Graphics/SVG/1.1/DTD/svg11.dtd">
<svg xmlns="http://www.w3.org/2000/svg" xmlns:xlink="http://www.w3.org/1999/xlink" version="1.1" id="Capa_1" x="0px" y="0px" viewBox="0 0 465 465" style="enable-background:new 0 0 465 465;" xml:space="preserve" width="512px" height="512px">
<g>
	<path d="M465,49.588H0v288.484h177.99l-40.316,69.84l12.991,7.499l44.645-77.339h74.379l44.645,77.339l12.991-7.499l-40.316-69.84   H465V49.588z M424.74,80.535H40.261L25.032,64.588h414.935L424.74,80.535z M420.448,95.535v196.59H44.552V95.535H420.448z    M29.552,91.041v205.578L15,311.858V75.802L29.552,91.041z M40.261,307.125H424.74l15.228,15.947H25.032L40.261,307.125z    M435.448,296.619V91.041L450,75.802v236.056L435.448,296.619z" fill="#FFFFFF"/>
	<path d="M315.833,246.406h-94.918c-1.4-12.81-6.375-24.823-14.44-34.868l79.328-79.328l-10.606-10.606L135.394,261.406h180.44   V246.406z M195.79,222.222c5.344,7.104,8.771,15.378,10.014,24.184h-34.198L195.79,222.222z" fill="#FFFFFF"/>
</g>
<g>
</g>
<g>
</g>
<g>
</g>
<g>
</g>
<g>
</g>
<g>
</g>
<g>
</g>
<g>
</g>
<g>
</g>
<g>
</g>
<g>
</g>
<g>
</g>
<g>
</g>
<g>
</g>
<g>
</g>
</svg>
